# xmcd
#
# Track frame offsets: 
#        150
#        16750
#        37352
#        56542
#        82785
#        102635
#        129140
#        146915
#        177612
#        195895
#        215475
#        238227
#        269667
#
# Disc length: 3899 seconds
#
# Revision: 3
# Processed by: cddbd v1.5.2PL0 Copyright (c) Steve Scherf et al.
# Submitted via: ExactAudioCopy v0.99pb4
#
DISCID=be0f390d
DTITLE=The Band - The Last Waltz [CD 1)
DYEAR=1978
DGENRE=Rock
TTITLE0=Theme From The Last Waltz
TTITLE1=Up On Cripple Creek
TTITLE2=Who Do You Love
TTITLE3=Helpless
TTITLE4=Stagefright
TTITLE5=Coyote
TTITLE6=Dry Your Eyes
TTITLE7=It Makes No Difference
TTITLE8=Such A Night
TTITLE9=The Night They Drove Old Dixie Down
TTITLE10=Mystery Train
TTITLE11=Mannish Boy
TTITLE12=Further On Up The Road
EXTD=
EXTT0=
EXTT1=
EXTT2=
EXTT3=
EXTT4=
EXTT5=
EXTT6=
EXTT7=
EXTT8=
EXTT9=
EXTT10=
EXTT11=
EXTT12=
PLAYORDER=
